<svg viewBox="0 0 34 466" xmlns="http://www.w3.org/2000/svg" xmlns:bx="https://boxy-svg.com"><path d="M26.171 145.928H7.758A2.258 2.258 0 015.5 143.67v-21.411A2.258 2.258 0 017.758 120h18.413a2.26 2.26 0 012.259 2.259v21.411a2.259 2.259 0 01-2.259 2.258zm.327-23.997H7.431v4.101h19.067v-4.101zm0 19.168v-13.031H7.431v15.929h19.067v-2.898zm-9.541-11.618a6.874 6.874 0 016.867 6.867 6.874 6.874 0 01-6.867 6.866 6.874 6.874 0 01-6.866-6.866 6.874 6.874 0 016.866-6.867zm0 11.791a4.93 4.93 0 004.926-4.924 4.931 4.931 0 00-4.926-4.925 4.93 4.93 0 00-4.924 4.925 4.93 4.93 0 004.924 4.924zm1.159-2.307c.456 0 .897-.071 1.316-.197a3.596 3.596 0 01-2.52 1.046c-1.97 0-3.614-1.644-3.614-3.614 0-.407.073-.798.202-1.166.37 2.205 2.319 3.931 4.616 3.931zm-1.489-15.986c1.245 0 1.245 1.932 0 1.932-1.246 0-1.246-1.932 0-1.932zm3.199 0c1.245 0 1.245 1.932 0 1.932-1.246 0-1.246-1.932 0-1.932zm3.258 0c1.246 0 1.246 1.932 0 1.932-1.245 0-1.245-1.932 0-1.932z" class="cls-1" bx:origin="0.48 0.5" fill="#343434" fill-rule="evenodd"/><path d="M27.826 178.078l-3.288-1.898 2.385-.396a.862.862 0 00.709-.992.856.856 0 00-.992-.71l-4.454.74-3.097-1.788 3.097-1.788 4.454.74a.863.863 0 00.283-1.702l-2.385-.396 3.288-1.898a1.078 1.078 0 10-1.078-1.868l-3.288 1.898.85-2.262a.864.864 0 00-1.616-.607l-1.587 4.228-3.096 1.787v-3.575l2.868-3.487a.863.863 0 00-1.333-1.096l-1.535 1.866v-3.796a1.078 1.078 0 10-2.156 0v3.796l-1.535-1.866a.863.863 0 00-1.333 1.096l2.868 3.487v3.575l-3.096-1.787-1.587-4.228a.864.864 0 00-1.616.607l.849 2.262-3.287-1.898a1.08 1.08 0 00-1.079 1.868l3.289 1.898-2.385.396a.862.862 0 10.283 1.702l4.454-.74 3.096 1.788-2.802 1.618-4.712-.782a1.078 1.078 0 10-.354 2.127l2.126.352-2.995 1.729a1.08 1.08 0 001.079 1.868l3.287-1.899-.849 2.263a.865.865 0 00.808 1.166.864.864 0 00.808-.56l1.587-4.227 3.096-1.788v3.576l-2.868 3.487a.864.864 0 00.666 1.411.864.864 0 00.667-.315l1.535-1.866v3.796a1.077 1.077 0 102.156 0v-3.796l1.535 1.866a.864.864 0 001.333-1.096l-2.868-3.487v-3.576l3.096 1.788 1.587 4.227a.863.863 0 101.616-.606l-.85-2.263 3.288 1.899a1.076 1.076 0 001.473-.395 1.078 1.078 0 00-.395-1.473z" class="cls-1" fill="#333" fill-rule="evenodd"/><g transform="translate(3 79)"><rect x="1" y="1" width="26" height="26" rx="4" ry="4" class="cls-1" fill="none" stroke="#333" stroke-width="2"/><path d="M13.067 15.317c1.663 0 2.972-.398 3.925-1.195.953-.798 1.43-1.862 1.43-3.194 0-.9-.22-1.705-.661-2.414-.441-.71-1.063-1.257-1.866-1.641-.804-.385-1.727-.577-2.771-.577H7.675V19.95h3.292v-4.633h2.1zm-2.1-6.48h2.194c.594.007 1.063.2 1.407.582.344.381.516.891.516 1.528 0 .582-.168 1.032-.502 1.351-.335.318-.821.478-1.458.478h-2.157V8.837z" class="cls-2" fill="#323232" fill-rule="evenodd"/></g><path d="M32.266 51.282v9.658c0 .63-.442 1.14-1.071 1.14a1.14 1.14 0 01-1.139-1.14V40.033c2.57-.145 5.538 9.296 2.21 11.249zM16.962 62.717c-6.273 0-11.357-5.084-11.357-11.358C5.605 45.086 10.689 40 16.962 40c6.272 0 11.359 5.086 11.359 11.359 0 6.274-5.087 11.358-11.359 11.358zm0-20.186a8.827 8.827 0 10.002 17.654 8.827 8.827 0 00-.002-17.654zm-.001 14.611a5.782 5.782 0 110-11.564 5.782 5.782 0 010 11.564zM3.702 60.939c0 .63-.442 1.139-1.071 1.139a1.14 1.14 0 01-1.14-1.139V48.114C.608 47.571 0 46.437 0 45.119v-5.068l1.33 5.068.476-5.068.852 5.068.838-5.109.422 5.109 1.328-5.068v5.068c0 1.343-.634 2.498-1.544 3.027v12.793zM31.19 5.95C27.492 2.114 22.532 0 17.221 0 11.944 0 7.006 2.088 3.315 5.879a1.115 1.115 0 001.599 1.554c3.267-3.357 7.638-5.205 12.308-5.205 4.699 0 9.09 1.872 12.365 5.267a1.114 1.114 0 001.576.031 1.117 1.117 0 00.027-1.576zm-13.969-.262c-3.76 0-7.272 1.498-9.887 4.216A1.114 1.114 0 108.94 11.45a11.399 11.399 0 018.281-3.535c3.179 0 6.14 1.278 8.336 3.596a1.11 1.11 0 001.576.044 1.115 1.115 0 00.042-1.575c-2.623-2.768-6.158-4.292-9.954-4.292zm0 5.663a8.08 8.08 0 00-5.894 2.572 1.114 1.114 0 101.63 1.519 5.773 5.773 0 014.264-1.864c1.636 0 3.207.7 4.314 1.921.218.243.523.364.825.364a1.112 1.112 0 00.825-1.862 8.078 8.078 0 00-5.964-2.65zm0 5.99a2.072 2.072 0 100 4.143 2.072 2.072 0 000-4.143zM28.03 225.987H5.912A1.912 1.912 0 014 224.074v-22.161c0-1.057.856-1.913 1.912-1.913H28.03c1.056 0 1.912.856 1.912 1.913v22.161a1.912 1.912 0 01-1.912 1.913zm0-23.795a.28.28 0 00-.279-.279H6.191a.28.28 0 00-.279.279v21.603a.28.28 0 00.279.279h21.56a.28.28 0 00.279-.279v-21.603zm-5.737 18.514a.297.297 0 01-.256-.147l-3.53-6.102a.29.29 0 01.256-.435h7.06c.104 0 .202.056.255.145.053.09.053.2 0 .29l-3.529 6.102a.3.3 0 01-.256.147zm-3.53-8.616a.3.3 0 01-.256-.144.29.29 0 010-.291l3.53-6.101a.296.296 0 01.512 0l3.529 6.101a.286.286 0 010 .291.298.298 0 01-.255.144h-7.06zm-4.12 4.313l-.395 4.908a1.422 1.422 0 01-1.417 1.307h-1.144a1.42 1.42 0 01-1.416-1.303l-.409-4.912a1.913 1.913 0 01-1.912-1.913v-3.346c0-1.057.856-1.913 1.912-1.913h.717l1.673 3.06 1.674-3.06h.717c1.056 0 1.912.856 1.912 1.913v3.346a1.913 1.913 0 01-1.912 1.913zm-2.391-8.128a2.39 2.39 0 110-4.78 2.39 2.39 0 010 4.78z" class="cls-1" fill="#343434" fill-rule="evenodd"/><path d="M26.171 385.928H7.758A2.258 2.258 0 015.5 383.67v-21.411A2.258 2.258 0 017.758 360h18.413a2.26 2.26 0 012.259 2.259v21.411a2.259 2.259 0 01-2.259 2.258zm.327-23.997H7.431v4.101h19.067v-4.101zm0 19.168v-13.031H7.431v15.929h19.067v-2.898zm-9.541-11.618a6.874 6.874 0 016.867 6.867 6.874 6.874 0 01-6.867 6.866 6.874 6.874 0 01-6.866-6.866 6.874 6.874 0 016.866-6.867zm0 11.791a4.93 4.93 0 004.926-4.924 4.931 4.931 0 00-4.926-4.925 4.93 4.93 0 00-4.924 4.925 4.93 4.93 0 004.924 4.924zm1.159-2.307c.456 0 .897-.071 1.316-.197a3.596 3.596 0 01-2.52 1.046c-1.97 0-3.614-1.644-3.614-3.614 0-.407.073-.798.202-1.166.37 2.205 2.319 3.931 4.616 3.931zm-1.489-15.986c1.245 0 1.245 1.932 0 1.932-1.246 0-1.246-1.932 0-1.932zm3.199 0c1.245 0 1.245 1.932 0 1.932-1.246 0-1.246-1.932 0-1.932zm3.258 0c1.246 0 1.246 1.932 0 1.932-1.245 0-1.245-1.932 0-1.932zm4.742 55.099l-3.288-1.898 2.385-.396a.862.862 0 00.709-.992.856.856 0 00-.992-.71l-4.454.74-3.097-1.788 3.097-1.788 4.454.74a.863.863 0 00.283-1.702l-2.385-.396 3.288-1.898a1.078 1.078 0 10-1.078-1.868l-3.288 1.898.85-2.262a.864.864 0 00-1.616-.607l-1.587 4.228-3.096 1.787v-3.575l2.868-3.487a.863.863 0 00-1.333-1.096l-1.535 1.866v-3.796a1.078 1.078 0 10-2.156 0v3.796l-1.535-1.866a.863.863 0 00-1.333 1.096l2.868 3.487v3.575l-3.096-1.787-1.587-4.228a.864.864 0 00-1.616.607l.849 2.262-3.287-1.898a1.08 1.08 0 00-1.079 1.868l3.289 1.898-2.385.396a.862.862 0 10.283 1.702l4.454-.74 3.096 1.788-2.802 1.618-4.712-.782a1.078 1.078 0 10-.354 2.127l2.126.352-2.995 1.729a1.08 1.08 0 001.079 1.868l3.287-1.899-.849 2.263a.865.865 0 00.808 1.166.864.864 0 00.808-.56l1.587-4.227 3.096-1.788v3.576l-2.868 3.487a.864.864 0 00.666 1.411.864.864 0 00.667-.315l1.535-1.866v3.796a1.077 1.077 0 102.156 0v-3.796l1.535 1.866a.864.864 0 001.333-1.096l-2.868-3.487v-3.576l3.096 1.788 1.587 4.227a.863.863 0 101.616-.606l-.85-2.263 3.288 1.899a1.076 1.076 0 001.473-.395 1.078 1.078 0 00-.395-1.473zm4.44-126.796v9.658c0 .63-.442 1.14-1.071 1.14a1.14 1.14 0 01-1.139-1.14v-20.907c2.57-.145 5.538 9.296 2.21 11.249zm-15.304 11.435c-6.273 0-11.357-5.084-11.357-11.358 0-6.273 5.084-11.359 11.357-11.359 6.272 0 11.359 5.086 11.359 11.359 0 6.274-5.087 11.358-11.359 11.358zm0-20.186a8.827 8.827 0 10.002 17.654 8.827 8.827 0 00-.002-17.654zm-.001 14.611a5.782 5.782 0 110-11.564 5.782 5.782 0 010 11.564zm-13.259 3.797c0 .63-.442 1.139-1.071 1.139a1.14 1.14 0 01-1.14-1.139v-12.825C.608 287.571 0 286.437 0 285.119v-5.068l1.33 5.068.476-5.068.852 5.068.838-5.109.422 5.109 1.328-5.068v5.068c0 1.343-.634 2.498-1.544 3.027v12.793zM31.19 245.95c-3.698-3.836-8.658-5.95-13.969-5.95-5.277 0-10.215 2.088-13.906 5.879a1.115 1.115 0 001.599 1.554c3.267-3.357 7.638-5.205 12.308-5.205 4.699 0 9.09 1.872 12.365 5.267a1.114 1.114 0 001.576.031 1.117 1.117 0 00.027-1.576zm-13.969-.262c-3.76 0-7.272 1.498-9.887 4.216a1.114 1.114 0 101.606 1.546 11.399 11.399 0 018.281-3.535c3.179 0 6.14 1.278 8.336 3.596a1.11 1.11 0 001.576.044 1.115 1.115 0 00.042-1.575c-2.623-2.768-6.158-4.292-9.954-4.292zm0 5.663a8.08 8.08 0 00-5.894 2.572 1.114 1.114 0 101.63 1.519 5.773 5.773 0 014.264-1.864c1.636 0 3.207.7 4.314 1.921.218.243.523.364.825.364a1.112 1.112 0 00.825-1.862 8.078 8.078 0 00-5.964-2.65zm0 5.99a2.072 2.072 0 100 4.143 2.072 2.072 0 000-4.143zM28.03 465.987H5.912A1.912 1.912 0 014 464.074v-22.161c0-1.057.856-1.913 1.912-1.913H28.03c1.056 0 1.912.856 1.912 1.913v22.161a1.912 1.912 0 01-1.912 1.913zm0-23.795a.28.28 0 00-.279-.279H6.191a.28.28 0 00-.279.279v21.603a.28.28 0 00.279.279h21.56a.28.28 0 00.279-.279v-21.603zm-5.737 18.514a.297.297 0 01-.256-.147l-3.53-6.102a.29.29 0 01.256-.435h7.06c.104 0 .202.056.255.145.053.09.053.2 0 .29l-3.529 6.102a.3.3 0 01-.256.147zm-3.53-8.616a.3.3 0 01-.256-.144.29.29 0 010-.291l3.53-6.101a.296.296 0 01.512 0l3.529 6.101a.286.286 0 010 .291.298.298 0 01-.255.144h-7.06zm-4.12 4.313l-.395 4.908a1.422 1.422 0 01-1.417 1.307h-1.144a1.42 1.42 0 01-1.416-1.303l-.409-4.912a1.913 1.913 0 01-1.912-1.913v-3.346c0-1.057.856-1.913 1.912-1.913h.717l1.673 3.06 1.674-3.06h.717c1.056 0 1.912.856 1.912 1.913v3.346a1.913 1.913 0 01-1.912 1.913zm-2.391-8.128a2.39 2.39 0 110-4.78 2.39 2.39 0 010 4.78z" class="cls-1" fill-rule="evenodd" fill="#fff"/><g transform="translate(3 319)"><rect x="1" y="1" width="26" height="26" rx="4" ry="4" class="cls-1" fill="none" stroke-width="2" stroke="#fff"/><path d="M13.067 15.317c1.663 0 2.972-.398 3.925-1.195.953-.798 1.43-1.862 1.43-3.194 0-.9-.22-1.705-.661-2.414-.441-.71-1.063-1.257-1.866-1.641-.804-.385-1.727-.577-2.771-.577H7.675V19.95h3.292v-4.633h2.1zm-2.1-6.48h2.194c.594.007 1.063.2 1.407.582.344.381.516.891.516 1.528 0 .582-.168 1.032-.502 1.351-.335.318-.821.478-1.458.478h-2.157V8.837z" class="cls-2" fill-rule="evenodd" stroke="#fff" fill="#fff"/></g></svg>